<?xml version="1.0" standalone="no"?>
<!DOCTYPE svg PUBLIC "-//W3C//DTD SVG 20010904//EN"
 "http://www.w3.org/TR/2001/REC-SVG-20010904/DTD/svg10.dtd">
<svg version="1.0" xmlns="http://www.w3.org/2000/svg"
 width="234.000000pt" height="288.000000pt" viewBox="0 0 234.000000 288.000000"
 preserveAspectRatio="xMidYMid meet">

<g transform="translate(0.000000,288.000000) scale(0.100000,-0.100000)"
fill="#000000" stroke="none">
<path d="M840 2850 c0 -27 -3 -30 -30 -30 -27 0 -30 -3 -30 -30 0 -27 -3 -30
-30 -30 -27 0 -30 -3 -30 -30 0 -27 -3 -30 -30 -30 l-30 0 0 -90 0 -90 -30 0
-30 0 0 -60 0 -60 -30 0 -30 0 0 -120 0 -120 30 0 c27 0 30 -3 30 -30 0 -27 3
-30 30 -30 27 0 30 -3 30 -30 0 -27 3 -30 30 -30 l30 0 0 -60 0 -60 30 0 30 0
0 -150 0 -150 30 0 c27 0 30 -3 30 -30 l0 -30 60 0 60 0 0 -90 0 -90 -30 0
c-27 0 -30 -3 -30 -30 0 -27 -3 -30 -30 -30 -27 0 -30 3 -30 30 0 27 -3 30
-30 30 -27 0 -30 3 -30 30 0 27 -3 30 -30 30 -27 0 -30 3 -30 30 0 27 -3 30
-30 30 -27 0 -30 3 -30 30 0 27 -3 30 -30 30 -27 0 -30 3 -30 30 0 27 -3 30
-30 30 -27 0 -30 3 -30 30 l0 30 -60 0 -60 0 0 30 0 30 -60 0 -60 0 0 30 0 30
-120 0 -120 0 0 -30 c0 -27 -3 -30 -30 -30 -27 0 -30 -3 -30 -30 0 -27 3 -30
30 -30 27 0 30 -3 30 -30 l0 -30 60 0 60 0 0 -30 c0 -27 3 -30 30 -30 27 0 30
-3 30 -30 0 -27 3 -30 30 -30 27 0 30 -3 30 -30 0 -27 3 -30 30 -30 27 0 30
-3 30 -30 0 -27 3 -30 30 -30 27 0 30 -3 30 -30 0 -27 -3 -30 -30 -30 -27 0
-30 -3 -30 -30 0 -27 -3 -30 -30 -30 l-30 0 0 -60 0 -60 -30 0 -30 0 0 -330 0
-330 30 0 30 0 0 -60 0 -60 30 0 c27 0 30 -3 30 -30 l0 -30 90 0 90 0 0 -90 0
-90 30 0 c27 0 30 -3 30 -30 l0 -30 60 0 60 0 0 -30 0 -30 270 0 270 0 0 30 0
30 60 0 60 0 0 30 c0 27 3 30 30 30 l30 0 0 90 0 90 90 0 90 0 0 30 0 30 150
0 150 0 0 30 0 30 60 0 60 0 0 30 0 30 60 0 60 0 0 30 c0 27 3 30 30 30 27 0
30 3 30 30 0 27 3 30 30 30 l30 0 0 60 0 60 30 0 30 0 0 240 0 240 -30 0 -30
0 0 60 0 60 -30 0 c-27 0 -30 3 -30 30 l0 30 -60 0 -60 0 0 30 0 30 -120 0
-120 0 0 -30 0 -30 -60 0 -60 0 0 -30 c0 -27 -3 -30 -30 -30 -27 0 -30 -3 -30
-30 0 -27 -3 -30 -30 -30 -27 0 -30 3 -30 30 l0 30 -90 0 -90 0 0 120 0 120
60 0 60 0 0 30 c0 27 3 30 30 30 l30 0 0 150 0 150 30 0 30 0 0 60 0 60 30 0
c27 0 30 3 30 30 0 27 3 30 30 30 27 0 30 3 30 30 0 27 3 30 30 30 l30 0 0
120 0 120 -30 0 -30 0 0 60 0 60 -30 0 -30 0 0 90 0 90 -30 0 c-27 0 -30 3
-30 30 0 27 -3 30 -30 30 -27 0 -30 3 -30 30 0 27 -3 30 -30 30 -27 0 -30 3
-30 30 l0 30 -120 0 -120 0 0 -30 c0 -27 -3 -30 -30 -30 -27 0 -30 -3 -30 -30
l0 -30 -60 0 -60 0 0 30 c0 27 -3 30 -30 30 -27 0 -30 3 -30 30 l0 30 -120 0
-120 0 0 -30z m240 -60 c0 -27 3 -30 30 -30 27 0 30 -3 30 -30 l0 -30 60 0 60
0 0 30 c0 27 3 30 30 30 27 0 30 3 30 30 l0 30 120 0 120 0 0 -30 c0 -27 3
-30 30 -30 27 0 30 -3 30 -30 0 -27 3 -30 30 -30 l30 0 0 -90 0 -90 30 0 30 0
0 -60 0 -60 30 0 30 0 0 -120 0 -120 -30 0 c-27 0 -30 -3 -30 -30 0 -27 -3
-30 -30 -30 -27 0 -30 -3 -30 -30 0 -27 -3 -30 -30 -30 l-30 0 0 90 0 90 -30
0 -30 0 0 -90 0 -90 -60 0 -60 0 0 -30 0 -30 -240 0 -240 0 0 30 0 30 -60 0
-60 0 0 90 0 90 -30 0 -30 0 0 -90 0 -90 -30 0 c-27 0 -30 3 -30 30 0 27 -3
30 -30 30 -27 0 -30 3 -30 30 0 27 -3 30 -30 30 l-30 0 0 120 0 120 30 0 30 0
0 60 0 60 30 0 30 0 0 90 0 90 30 0 c27 0 30 3 30 30 0 27 3 30 30 30 27 0 30
3 30 30 l0 30 120 0 120 0 0 -30z m0 -900 l0 -30 120 0 120 0 0 30 0 30 90 0
90 0 0 -30 c0 -27 3 -30 30 -30 l30 0 0 -90 0 -90 -30 0 c-27 0 -30 -3 -30
-30 l0 -30 -90 0 -90 0 0 30 0 30 -120 0 -120 0 0 -30 0 -30 -90 0 -90 0 0 30
c0 27 -3 30 -30 30 l-30 0 0 90 0 90 30 0 c27 0 30 3 30 30 l0 30 90 0 90 0 0
-30z m-780 -180 l0 -30 60 0 60 0 0 -30 0 -30 60 0 60 0 0 -30 c0 -27 3 -30
30 -30 27 0 30 -3 30 -30 0 -27 3 -30 30 -30 27 0 30 -3 30 -30 0 -27 3 -30
30 -30 27 0 30 -3 30 -30 0 -27 3 -30 30 -30 27 0 30 -3 30 -30 l0 -30 -90 0
-90 0 0 30 0 30 -90 0 -90 0 0 30 c0 27 -3 30 -30 30 -27 0 -30 3 -30 30 0 27
-3 30 -30 30 -27 0 -30 3 -30 30 0 27 -3 30 -30 30 -27 0 -30 3 -30 30 0 27
-3 30 -30 30 -27 0 -30 3 -30 30 l0 30 -60 0 -60 0 0 30 0 30 120 0 120 0 0
-30z m1080 -180 c0 -27 -3 -30 -30 -30 -27 0 -30 -3 -30 -30 0 -27 -3 -30 -30
-30 -27 0 -30 -3 -30 -30 l0 -30 -60 0 -60 0 0 30 c0 27 -3 30 -30 30 -27 0
-30 3 -30 30 0 27 -3 30 -30 30 -27 0 -30 3 -30 30 l0 30 180 0 180 0 0 -30z
m720 -180 l0 -30 60 0 60 0 0 -60 0 -60 30 0 30 0 0 -180 0 -180 -30 0 -30 0
0 -60 0 -60 -30 0 c-27 0 -30 -3 -30 -30 0 -27 -3 -30 -30 -30 -27 0 -30 -3
-30 -30 l0 -30 -60 0 -60 0 0 -30 0 -30 -90 0 -90 0 0 30 c0 27 -3 30 -30 30
l-30 0 0 120 0 120 30 0 c27 0 30 3 30 30 l0 30 60 0 60 0 0 -60 0 -60 30 0
30 0 0 90 0 90 -30 0 c-27 0 -30 3 -30 30 l0 30 -60 0 -60 0 0 30 c0 27 -3 30
-30 30 -27 0 -30 3 -30 30 0 27 -3 30 -30 30 l-30 0 0 60 0 60 30 0 c27 0 30
3 30 30 l0 30 60 0 60 0 0 30 0 30 120 0 120 0 0 -30z m-1020 -60 l0 -30 120
0 120 0 0 -150 0 -150 -30 0 c-27 0 -30 -3 -30 -30 l0 -30 -360 0 -360 0 0
-30 c0 -27 -3 -30 -30 -30 l-30 0 0 -210 0 -210 -60 0 -60 0 0 60 0 60 -30 0
-30 0 0 270 0 270 30 0 30 0 0 60 0 60 30 0 c27 0 30 3 30 30 l0 30 270 0 270
0 0 30 0 30 60 0 60 0 0 -30z m480 -600 c0 -27 -3 -30 -30 -30 -27 0 -30 -3
-30 -30 0 -27 -3 -30 -30 -30 -27 0 -30 -3 -30 -30 l0 -30 -360 0 -360 0 0
-30 c0 -27 -3 -30 -30 -30 -27 0 -30 3 -30 30 0 27 3 30 30 30 27 0 30 3 30
30 l0 30 360 0 360 0 0 30 c0 27 3 30 30 30 27 0 30 3 30 30 0 27 3 30 30 30
27 0 30 -3 30 -30z m-840 -300 c0 -27 -3 -30 -30 -30 -27 0 -30 3 -30 30 0 27
3 30 30 30 27 0 30 -3 30 -30z m0 -120 c0 -27 3 -30 30 -30 27 0 30 -3 30 -30
0 -27 -3 -30 -30 -30 -27 0 -30 3 -30 30 0 27 -3 30 -30 30 -27 0 -30 3 -30
30 0 27 3 30 30 30 27 0 30 -3 30 -30z m420 -120 c0 -27 -3 -30 -30 -30 -27 0
-30 3 -30 30 0 27 3 30 30 30 27 0 30 -3 30 -30z"/>
<path d="M900 2730 c0 -27 -3 -30 -30 -30 -27 0 -30 -3 -30 -30 0 -27 -3 -30
-30 -30 l-30 0 0 -120 0 -120 30 0 c27 0 30 -3 30 -30 0 -27 3 -30 30 -30 27
0 30 -3 30 -30 0 -27 -3 -30 -30 -30 -27 0 -30 -3 -30 -30 0 -27 3 -30 30 -30
27 0 30 3 30 30 l0 30 60 0 60 0 0 30 0 30 180 0 180 0 0 -30 0 -30 60 0 60 0
0 -30 c0 -27 3 -30 30 -30 27 0 30 3 30 30 0 27 -3 30 -30 30 -27 0 -30 3 -30
30 0 27 3 30 30 30 27 0 30 3 30 30 0 27 3 30 30 30 l30 0 0 120 0 120 -30 0
c-27 0 -30 3 -30 30 0 27 -3 30 -30 30 -27 0 -30 3 -30 30 l0 30 -60 0 -60 0
0 -30 c0 -27 -3 -30 -30 -30 -27 0 -30 -3 -30 -30 0 -27 -3 -30 -30 -30 l-30
0 0 -90 0 -90 -60 0 -60 0 0 90 0 90 -30 0 c-27 0 -30 3 -30 30 0 27 -3 30
-30 30 -27 0 -30 3 -30 30 l0 30 -60 0 -60 0 0 -30z m120 -60 c0 -27 3 -30 30
-30 l30 0 0 -120 0 -120 -30 0 c-27 0 -30 -3 -30 -30 l0 -30 -60 0 -60 0 0 30
c0 27 -3 30 -30 30 l-30 0 0 120 0 120 30 0 c27 0 30 3 30 30 l0 30 60 0 60 0
0 -30z m480 0 c0 -27 3 -30 30 -30 l30 0 0 -120 0 -120 -30 0 c-27 0 -30 -3
-30 -30 l0 -30 -60 0 -60 0 0 30 c0 27 -3 30 -30 30 l-30 0 0 120 0 120 30 0
c27 0 30 3 30 30 l0 30 60 0 60 0 0 -30z"/>
<path d="M960 2460 l0 -60 30 0 30 0 0 60 0 60 -30 0 -30 0 0 -60z"/>
<path d="M1380 2460 l0 -60 30 0 30 0 0 60 0 60 -30 0 -30 0 0 -60z"/>
<path d="M1020 2190 c0 -27 3 -30 30 -30 27 0 30 3 30 30 0 27 -3 30 -30 30
-27 0 -30 -3 -30 -30z"/>
<path d="M1260 2190 c0 -27 3 -30 30 -30 27 0 30 3 30 30 0 27 -3 30 -30 30
-27 0 -30 -3 -30 -30z"/>
<path d="M960 1830 c0 -27 -3 -30 -30 -30 -27 0 -30 -3 -30 -30 0 -27 3 -30
30 -30 27 0 30 -3 30 -30 0 -27 3 -30 30 -30 27 0 30 3 30 30 0 27 3 30 30 30
27 0 30 3 30 30 0 27 -3 30 -30 30 -27 0 -30 3 -30 30 0 27 -3 30 -30 30 -27
0 -30 -3 -30 -30z"/>
<path d="M1380 1830 c0 -27 -3 -30 -30 -30 -27 0 -30 -3 -30 -30 0 -27 3 -30
30 -30 27 0 30 -3 30 -30 0 -27 3 -30 30 -30 27 0 30 3 30 30 0 27 3 30 30 30
27 0 30 3 30 30 0 27 -3 30 -30 30 -27 0 -30 3 -30 30 0 27 -3 30 -30 30 -27
0 -30 -3 -30 -30z m60 -60 c0 -27 -3 -30 -30 -30 -27 0 -30 3 -30 30 0 27 3
30 30 30 27 0 30 -3 30 -30z"/>
<path d="M1140 1770 l0 -30 60 0 60 0 0 30 0 30 -60 0 -60 0 0 -30z"/>
</g>
</svg>
