<?xml version="1.0" encoding="utf-8"?>
<svg viewBox="0 0 500 500" xmlns="http://www.w3.org/2000/svg">
  <path d="M 414.554 457.805 C 414.541 472.539 402.372 484.481 387.358 484.491 L 97.175 484.491 C 82.161 484.491 69.982 472.56 69.957 457.827 L 69.957 41.045 C 69.947 26.29 82.139 14.325 97.175 14.338 L 283.407 14.338 L 414.554 145.579 L 414.554 457.805 Z" fill="#23a566" style=""/>
  <path d="M 297.839 142.156 L 414.554 251.625 L 414.554 144.815 L 311.166 144.815 C 306.653 144.865 302.202 143.767 298.251 141.625 L 297.839 142.156 Z" fill="#1c8f5a" style=""/>
  <path d="M 414.554 145.368 L 310.885 145.368 C 295.871 145.355 283.7 133.415 283.689 118.681 L 283.689 13.613 L 414.554 145.368 Z" fill="#8ed1b1" style=""/>
  <path clip-rule="evenodd" d="M 331.579 397.819 L 152.26 397.819 L 152.26 245.245 L 331.579 245.245 L 331.579 397.819 Z M 253.069 267.255 L 253.069 293.964 L 309.542 293.964 L 309.542 267.298 L 253.069 267.255 Z M 253.069 310.784 L 253.069 336.299 L 309.542 336.299 L 309.542 310.655 L 253.069 310.784 Z M 253.069 352.567 L 253.069 376.191 L 309.542 376.191 L 309.542 352.441 L 253.069 352.567 Z M 230.901 376.065 L 230.901 352.441 L 174.45 352.441 L 174.45 376.065 L 230.901 376.065 Z M 230.901 336.023 L 230.901 310.655 L 174.45 310.655 L 174.45 336.151 L 230.901 336.023 Z M 230.901 294.24 L 230.901 267.255 L 174.45 267.255 L 174.45 293.964 L 230.901 294.24 Z" fill="#fff" fill-rule="evenodd" style=""/>
</svg>