<svg version="1.1" xmlns="http://www.w3.org/2000/svg" width="3500" height="3500">
<style>
     * {
          transition: all 0.25s;
     }

     body {
          margin: 0;
          padding: 0;
     }

     .node {
          cursor: pointer;
     }

     .node circle {
          fill: #fff;
          stroke: steelblue;
          stroke-width: 1.5px;
     }

     .node text {
          font: 10px sans-serif;
     }

     .link {
          fill: none;
          stroke: #ccc;
          stroke-width: 1.5px;
     }
</style>
<g transform="translate(1750,1750)"><path class="link" d="M0,0C-74.58866767250296,66.60728679987584 57.2685063886422,81.97754677967649 114.5370127772844,163.95509355935297"></path><path class="link" d="M0,0C-74.58866767250296,66.60728679987584 -75.00152024036214,-66.14205894613919 -150.00304048072428,-132.28411789227837"></path><path class="link" d="M-150.00304048072428,-132.28411789227837C-225.00456072108642,-198.42617683841752 -283.91389479243526,-96.9169765510151 -378.55185972324693,-129.22263540135347"></path><path class="link" d="M-150.00304048072428,-132.28411789227837C-225.00456072108642,-198.42617683841752 -131.65846017576098,-269.5664108603807 -175.5446135676813,-359.42188114717425"></path><path class="link" d="M-378.551859723247,-129.22263540135347C-473.18982465405867,-161.52829425169182 -477.8645295131742,-147.1240681640927 -573.437435415809,-176.54888179691125"></path><path class="link" d="M-378.551859723247,-129.22263540135347C-473.18982465405867,-161.52829425169182 -468.0810446083257,-175.78434423571017 -561.6972535299908,-210.9412130828522"></path><path class="link" d="M-573.4374354158091,-176.54888179691125C-669.010341318444,-205.9736954297298 -669.010341318444,-205.9736954297298 -764.5832472210789,-235.39850906254833"></path><path class="link" d="M-764.5832472210788,-235.39850906254833C-860.1561531237136,-264.82332269536687 -860.1561531237136,-264.82332269536687 -955.7290590263484,-294.2481363281854"></path><path class="link" d="M-175.5446135676813,-359.42188114717425C-219.4307669596016,-449.27735143396774 -284.69969079904615,-411.03051718689636 -341.6396289588554,-493.23662062427564"></path><path class="link" d="M-175.5446135676813,-359.42188114717425C-219.4307669596016,-449.27735143396774 -259.2935013731068,-427.5124327381306 -311.1522016477282,-513.0149192857567"></path><path class="link" d="M-175.5446135676813,-359.42188114717425C-219.4307669596016,-449.27735143396774 -232.93609062442204,-442.4260137973478 -279.5233087493064,-530.9112165568174"></path><path class="link" d="M-175.5446135676813,-359.42188114717425C-219.4307669596016,-449.27735143396774 -205.7241510307582,-455.7165497133868 -246.86898123690986,-546.8598596560641"></path><path class="link" d="M-175.5446135676813,-359.42188114717425C-219.4307669596016,-449.27735143396774 -177.75750991920881,-467.33528399567945 -213.30901190305053,-560.8023407948153"></path><path class="link" d="M-175.5446135676813,-359.42188114717425C-219.4307669596016,-449.27735143396774 -149.13876324844523,-477.2395931780223 -178.96651589813428,-572.6875118136268"></path><path class="link" d="M-341.6396289588554,-493.23662062427564C-398.5795671186646,-575.4427240616549 -436.8402436136326,-546.9648997509639 -499.24599270129437,-625.1027425725302"></path><path class="link" d="M-341.6396289588554,-493.23662062427564C-398.5795671186646,-575.4427240616549 -411.5476869027612,-566.2406744529987 -470.34021360315563,-647.1321993748558"></path><path class="link" d="M-341.6396289588554,-493.23662062427564C-398.5795671186646,-575.4427240616549 -385.40577226751464,-584.3478336597825 -440.46373973430246,-667.8260956111798"></path><path class="link" d="M-341.6396289588554,-493.23662062427564C-398.5795671186646,-575.4427240616549 -358.4684517602577,-601.2490075605978 -409.6782305831517,-687.1417229263975"></path><path class="link" d="M-440.46373973430246,-667.8260956111798C-495.52170720109024,-751.3043575625774 -495.52170720109024,-751.3043575625774 -550.5796746678781,-834.782619513975"></path><path class="link" d="M114.5370127772844,163.95509355935297C171.80551916592663,245.93264033902943 171.80551916592663,245.93264033902943 229.0740255545688,327.91018711870595"></path><path class="link" d="M229.0740255545688,327.91018711870595C286.34253194321104,409.88773389838246 305.9053419306658,-395.50211349407783 367.086410316799,-474.6025361928934"></path><path class="link" d="M229.0740255545688,327.91018711870595C286.34253194321104,409.88773389838246 495.73007537544976,-65.20500263209006 594.8760904505398,-78.24600315850809"></path><path class="link" d="M229.0740255545688,327.91018711870595C286.34253194321104,409.88773389838246 424.8823006004333,263.5811651777931 509.85876072051997,316.2973982133517"></path><path class="link" d="M229.0740255545688,327.91018711870595C286.34253194321104,409.88773389838246 372.781177535833,333.2179372047636 447.33741304299963,399.86152464571626"></path><path class="link" d="M229.0740255545688,327.91018711870595C286.34253194321104,409.88773389838246 309.40147488676513,392.7731245106957 371.28176986411813,471.3277494128348"></path><path class="link" d="M229.0740255545688,327.91018711870595C286.34253194321104,409.88773389838246 236.66076001833318,440.4448713148388 283.9929120219998,528.5338455778066"></path><path class="link" d="M229.0740255545688,327.91018711870595C286.34253194321104,409.88773389838246 -14.709557025126742,499.7835820954151 -17.65146843015208,599.7402985144981"></path><path class="link" d="M229.0740255545688,327.91018711870595C286.34253194321104,409.88773389838246 -54.358015635339996,497.0364233496255 -65.229618762408,596.4437080195506"></path><path class="link" d="M229.0740255545688,327.91018711870595C286.34253194321104,409.88773389838246 -93.66303005055619,491.1488947373786 -112.39563606066741,589.3786736848543"></path><path class="link" d="M229.0740255545688,327.91018711870595C286.34253194321104,409.88773389838246 -132.37626377656312,482.15819477486616 -158.8515165318758,578.5898337298394"></path><path class="link" d="M229.0740255545688,327.91018711870595C286.34253194321104,409.88773389838246 -170.2531193011567,470.12112840014555 -204.303743161388,564.1453540801747"></path><path class="link" d="M229.0740255545688,327.91018711870595C286.34253194321104,409.88773389838246 -207.05428350735446,455.1137480688274 -248.4651402088253,546.1364976825929"></path><path class="link" d="M229.0740255545688,327.91018711870595C286.34253194321104,409.88773389838246 -242.54723969880473,437.2308732403175 -291.0566876385656,524.677047888381"></path><path class="link" d="M229.0740255545688,327.91018711870595C286.34253194321104,409.88773389838246 -409.82577460607587,286.4312037270553 -491.7909295272912,343.71744447246635"></path><path class="link" d="M229.0740255545688,327.91018711870595C286.34253194321104,409.88773389838246 -426.4147265558308,261.0947739352821 -511.6976718669969,313.3137287223385"></path><path class="link" d="M229.0740255545688,327.91018711870595C286.34253194321104,409.88773389838246 -441.43937096187705,234.80051483074382 -529.7272451542524,281.7606177968926"></path><path class="link" d="M229.0740255545688,327.91018711870595C286.34253194321104,409.88773389838246 -454.844589735832,207.64488721864228 -545.8135076829983,249.17386466237076"></path><path class="link" d="M229.0740255545688,327.91018711870595C286.34253194321104,409.88773389838246 -466.58120567168663,179.72751184489033 -559.8974468060239,215.67301421386838"></path><path class="link" d="M229.0740255545688,327.91018711870595C286.34253194321104,409.88773389838246 -476.60616285297596,151.1508039362098 -571.9273954235712,181.38096472345177"></path><path class="link" d="M367.086410316799,-474.6025361928934C428.2674787029321,-553.7029588917089 376.25695426821693,-590.2801914047302 430.00794773510506,-674.6059330339774"></path><path class="link" d="M367.086410316799,-474.6025361928934C428.2674787029321,-553.7029588917089 402.67774248953117,-572.5824269950439 460.2031342737499,-654.3799165657645"></path><path class="link" d="M367.086410316799,-474.6025361928934C428.2674787029321,-553.7029588917089 428.2674787029321,-553.7029588917089 489.4485470890653,-632.8033815905245"></path><path class="link" d="M367.086410316799,-474.6025361928934C428.2674787029321,-553.7029588917089 452.97335044967656,-533.6807508074415 517.6838290853447,-609.9208580656475"></path><path class="link" d="M367.086410316799,-474.6025361928934C428.2674787029321,-553.7029588917089 476.7443694029813,-512.5571248578578 544.8507078891215,-585.7795712661233"></path><path class="link" d="M430.00794773510506,-674.6059330339774C483.7589412019932,-758.9316746632246 253.54231691313416,-863.5486630956705 281.71368545903795,-959.498514550745"></path><path class="link" d="M430.00794773510506,-674.6059330339774C483.7589412019932,-758.9316746632246 390.88795006821096,-810.6828051041122 434.31994452023434,-900.7586723379025"></path><path class="link" d="M430.00794773510506,-674.6059330339774C483.7589412019932,-758.9316746632246 517.781614937998,-736.140067672042 575.3129054866645,-817.9334085244911"></path><path class="link" d="M430.00794773510506,-674.6059330339774C483.7589412019932,-758.9316746632246 630.8302968220133,-641.9136519902429 700.9225520244593,-713.2373911002699"></path><path class="link" d="M430.00794773510506,-674.6059330339774C483.7589412019932,-758.9316746632246 653.7398373366905,-618.5662657137046 726.3775970407672,-687.2958507930051"></path><path class="link" d="M430.00794773510506,-674.6059330339774C483.7589412019932,-758.9316746632246 675.7858379751559,-594.4018011347345 750.8731533057288,-660.4464457052604"></path><path class="link" d="M281.71368545903795,-959.498514550745C309.88505400494176,-1055.4483660058195 156.53561478717666,-1088.805125494549 170.7661252223745,-1187.7874096304172"></path><path class="link" d="M281.71368545903795,-959.498514550745C309.88505400494176,-1055.4483660058195 456.92699451234284,-1000.6086755999657 498.4658121952831,-1091.5731006545082"></path><path class="link" d="M170.7661252223745,-1187.7874096304172C184.9966356575724,-1286.7696937662852 168.27809789982524,-1289.062636867277 181.22256696904256,-1388.2213012416828"></path><path class="link" d="M170.7661252223745,-1187.7874096304172C184.9966356575724,-1286.7696937662852 201.68400125311928,-1284.259928378415 217.1981551956669,-1383.049153638293"></path><path class="link" d="M498.4658121952831,-1091.5731006545082C540.0046298782233,-1182.5375257090504 524.6091711857332,-1189.4474420956221 564.9637228154049,-1280.9433991799008"></path><path class="link" d="M498.4658121952831,-1091.5731006545082C540.0046298782233,-1182.5375257090504 555.3090971218619,-1175.428350284994 598.0251815158513,-1265.8459156915321"></path><path class="link" d="M700.9225520244593,-713.2373911002699C771.0148072269052,-784.5611302102968 734.5863866955417,-818.7691008346542 801.3669673042274,-893.2026554559864"></path><path class="link" d="M700.9225520244593,-713.2373911002699C771.0148072269052,-784.5611302102968 759.045157298716,-796.1472534533843 828.0492625076903,-868.524276494601"></path><path class="link" d="M700.9225520244593,-713.2373911002699C771.0148072269052,-784.5611302102968 782.8076266478498,-772.795069641338 853.9719563431089,-843.0491668814597"></path><path class="link" d="M700.9225520244593,-713.2373911002699C771.0148072269052,-784.5611302102968 805.8519965178349,-748.733971252954 879.1112689285471,-816.8006959123135"></path><path class="link" d="M828.0492625076903,-868.524276494601C897.0533677166644,-940.9012995358178 897.0533677166644,-940.9012995358178 966.0574729256386,-1013.2783225770345"></path><path class="link" d="M594.8760904505398,-78.24600315850807C694.0221055256297,-91.28700368492608 659.9807976821978,-233.29240598607143 754.2637687796546,-266.6198925555102"></path><path class="link" d="M594.8760904505398,-78.24600315850807C694.0221055256297,-91.28700368492608 697.8602158955927,54.6911242356272 797.554532452106,62.50414198357393"></path><path class="link" d="M754.2637687796546,-266.6198925555102C848.5467398771115,-299.94737912494895 842.9559011431614,-315.3178534874304 936.617667936846,-350.3531705415893"></path><path class="link" d="M754.2637687796546,-266.6198925555102C848.5467398771115,-299.94737912494895 853.857339282924,-284.477844748384 948.7303769810267,-316.08649416487106"></path><path class="link" d="M948.7303769810267,-316.086494164871C1043.6034146791294,-347.6951435813582 1043.6034146791294,-347.6951435813582 1138.4764523772321,-379.3037929978453"></path><path class="link" d="M797.554532452106,62.50414198357396C897.2488490086191,70.31715973152069 899.211470910473,37.66604018241637 999.1238565671923,41.851155758240424"></path><path class="link" d="M797.554532452106,62.50414198357396C897.2488490086191,70.31715973152069 897.2488490086191,70.31715973152049 996.9431655651324,78.13017747946719"></path><path class="link" d="M797.554532452106,62.50414198357396C897.2488490086191,70.31715973152069 894.1010306176531,102.87539573897388 993.4455895751702,114.30599526552652"></path><path class="link" d="M993.4455895751702,114.30599526552658C1092.7901485326872,125.73659479207925 1092.7901485326872,125.73659479207925 1192.1347074902042,137.1671943186319"></path><path class="link" d="M509.85876072051997,316.2973982133517C594.8352208406067,369.0136312489103 603.0637482636045,355.4069716961836 689.2157123012622,406.1793962242098"></path><path class="link" d="M509.85876072051997,316.2973982133517C594.8352208406067,369.0136312489103 586.2997464890029,382.4298723516914 670.056853130289,437.06271125907585"></path><path class="link" d="M283.9929120219998,528.5338455778066C331.32506402566645,616.6228198407742 358.98863410118344,600.9385663994005 410.2727246870668,686.7869330278862"></path><path class="link" d="M283.9929120219998,528.5338455778066C331.32506402566645,616.6228198407742 331.32506402566645,616.6228198407742 378.6572160293331,704.711794103742"></path><path class="link" d="M283.9929120219998,528.5338455778066C331.32506402566645,616.6228198407742 302.97770060704545,631.0344784042053 346.2602292651948,721.1822610333775"></path><path class="link" d="M378.6572160293331,704.711794103742C425.9893680329997,792.8007683667098 425.9893680329997,792.8007683667098 473.32152003666636,880.8897426296776"></path><path class="link" d="M473.32152003666636,880.8897426296776C520.6536720403329,968.9787168926454 520.6536720403329,968.9787168926454 567.9858240439996,1057.0676911556131"></path><path class="link" d="M-17.65146843015206,599.7402985144981C-20.593379835177405,699.6970149335812 -4.694721403800308,699.9842566736345 -5.365395890057492,799.982007627011"></path><path class="link" d="M-17.65146843015206,599.7402985144981C-20.593379835177405,699.6970149335812 -36.48141166868641,699.0487154717187 -41.69304190707018,798.9128176819642"></path><path class="link" d="M-5.365395890057499,799.982007627011C-6.036070376314683,899.9797585803873 10.31958445061349,899.9408348201379 11.466204945126123,999.9342609112642"></path><path class="link" d="M-5.365395890057499,799.982007627011C-6.036070376314683,899.9797585803873 -22.389731742862494,899.7214568478862 -24.87747971429164,999.6905076087625"></path><path class="link" d="M-24.877479714291667,999.6905076087625C-27.36522768572081,1099.6595583696387 -10.709068229333411,1099.947869609128 -11.682619886545524,1199.9431304826853"></path><path class="link" d="M-24.877479714291667,999.6905076087625C-27.36522768572081,1099.6595583696387 -44.015110988852086,1099.1190426903897 -48.016484715111375,1199.0389556622433"></path><path class="link" d="M-291.0566876385656,524.677047888381C-339.56613557832657,612.1232225364445 -339.56613557832657,612.1232225364445 -388.0755835180875,699.569397184508"></path><path class="link" d="M-491.79092952729115,343.71744447246635C-573.7560844485063,401.0036852178774 -573.7560844485063,401.0036852178774 -655.7212393697215,458.28992596328845"></path><g class="node" transform="rotate(138.23532104492188)"><circle r="5" style="fill: rgb(255, 255, 255);"></circle><text x="10" dy=".35em" text-anchor="end" transform="rotate(180)translate(-20)">Legal</text></g><g class="node" transform="translate(114.5370099372227,163.9550955433851)rotate(55.06232452392578)"><circle r="5" style="fill: rgb(255, 255, 255);"></circle><text x="10" dy=".35em" text-anchor="start" transform="translate(0)">OntologyRoot</text></g><g class="node" transform="translate(-150.00302957540634,-132.28413025831844)rotate(221.4083099365234)"><circle r="5" style="fill: rgb(255, 255, 255);"></circle><text x="10" dy=".35em" text-anchor="end" transform="rotate(180)translate(-20)">Model</text></g><g class="node" transform="translate(-378.5518723930072,-129.22259828585865)rotate(-161.15213012695312)scale(1,1)"><circle r="5" style="fill: rgb(255, 255, 255);"></circle><text x="10" dy=".35em" text-anchor="end" transform="rotate(180)translate(-20)">GeografiaMixin</text></g><g class="node" transform="translate(-175.5446147871683,-359.42188055156674)rotate(243.96873474121094)"><circle r="5" style="fill: rgb(255, 255, 255);"></circle><text x="10" dy=".35em" text-anchor="end" transform="rotate(180)translate(-20)">ContratoTerminoIndefinidoMixin</text></g><g class="node" transform="translate(-573.4374370930507,-176.54887634916707)rotate(-162.88754272460938)"><circle r="5" style="fill: rgb(255, 255, 255);"></circle><text x="10" dy=".35em" text-anchor="end" transform="rotate(180)translate(-20)">Inmueble</text></g><g class="node" transform="translate(-561.6972367128546,-210.94125786375542)rotate(-159.4167022705078)scale(0.9999999999999999,0.9999999999999999)"><circle r="5" style="fill: rgb(255, 255, 255);"></circle><text x="10" dy=".35em" text-anchor="end" transform="rotate(180)translate(-20)">Vehiculo</text></g><g class="node" transform="translate(-764.583249457401,-235.3985017988894)rotate(-162.88754272460938)"><circle r="5" style="fill: rgb(255, 255, 255);"></circle><text x="10" dy=".35em" text-anchor="end" transform="rotate(180)translate(-20)">LocalComercial</text></g><g class="node" transform="translate(-955.7290618217512,-294.24812724861175)rotate(-162.88754272460938)"><circle r="5" style="fill: rgb(255, 255, 255);"></circle><text x="10" dy=".35em" text-anchor="end" transform="rotate(180)translate(-20)">LocalCentroComercial</text></g><g class="node" transform="translate(-341.6396749758179,-493.2365887506902)rotate(235.29164123535156)"><circle r="5" style="fill: rgb(255, 255, 255);"></circle><text x="10" dy=".35em" text-anchor="end" transform="rotate(180)translate(-20)">ContratoTerminoDefinidoMixin</text></g><g class="node" transform="translate(-311.1522037364655,-513.0149180189023)rotate(238.76248168945312)"><circle r="5" style="fill: rgb(255, 255, 255);"></circle><text x="10" dy=".35em" text-anchor="end" transform="rotate(180)translate(-20)">ContratoAlquilerInmuebleTerminoIndefinido</text></g><g class="node" transform="translate(-279.52326354065974,-530.9112403590443)rotate(242.23332214355463)"><circle r="5" style="fill: rgb(255, 255, 255);"></circle><text x="10" dy=".35em" text-anchor="end" transform="rotate(180)translate(-20)">ContratoAlquilerVehiculoTerminoIndefinido</text></g><g class="node" transform="translate(-246.8690315145227,-546.8598369592355)rotate(245.7041473388672)"><circle r="5" style="fill: rgb(255, 255, 255);"></circle><text x="10" dy=".35em" text-anchor="end" transform="rotate(180)translate(-20)">ContratoTrabajoTerminoIndefinido</text></g><g class="node" transform="translate(-213.30901342525272,-560.8023402158244)rotate(-110.82501220703128)scale(0.9999999999999999,0.9999999999999999)"><circle r="5" style="fill: rgb(255, 255, 255);"></circle><text x="10" dy=".35em" text-anchor="end" transform="rotate(180)translate(-20)">ContratoTrabajoObraTerminada</text></g><g class="node" transform="translate(-178.96646635488298,-572.6875272960348)rotate(-107.35417175292969)"><circle r="5" style="fill: rgb(255, 255, 255);"></circle><text x="10" dy=".35em" text-anchor="end" transform="rotate(180)translate(-20)">SuspensionContratoTrabajo</text></g><g class="node" transform="translate(-499.2459264827674,-625.1027954587655)rotate(231.38696289062497)"><circle r="5" style="fill: rgb(255, 255, 255);"></circle><text x="10" dy=".35em" text-anchor="end" transform="rotate(180)translate(-20)">ContratoAlquilerInmuebleTerminoDefinido</text></g><g class="node" transform="translate(-470.34023100229956,-647.1321867290358)rotate(233.99008178710938)skewX(-3.1805546814635176e-15)scale(0.9999999999999999,0.9999999999999999)"><circle r="5" style="fill: rgb(255, 255, 255);"></circle><text x="10" dy=".35em" text-anchor="end" transform="rotate(180)translate(-20)">ContratoAlquilerVehiculoTerminoDefinido</text></g><g class="node" transform="translate(-440.46366853682014,-667.8261425693713)rotate(236.59321594238284)"><circle r="5" style="fill: rgb(255, 255, 255);"></circle><text x="10" dy=".35em" text-anchor="end" transform="rotate(180)translate(-20)">ContratoTrabajoTerminoDefinido</text></g><g class="node" transform="translate(-409.67824859173083,-687.1417121895688)rotate(239.19633483886722)skewX(0)scale(1,1)"><circle r="5" style="fill: rgb(255, 255, 255);"></circle><text x="10" dy=".35em" text-anchor="end" transform="rotate(180)translate(-20)">ContratoPrestacionServicios</text></g><g class="node" transform="translate(-550.5795856710251,-834.782678211714)rotate(236.59321594238284)"><circle r="5" style="fill: rgb(255, 255, 255);"></circle><text x="10" dy=".35em" text-anchor="end" transform="rotate(180)translate(-20)">ContratoTrabajoAprendiz</text></g><g class="node" transform="translate(229.0740198744454,327.9101910867702)rotate(55.06232452392578)"><circle r="5" style="fill: rgb(255, 255, 255);"></circle><text x="10" dy=".35em" text-anchor="start" transform="translate(0)">LegalOntology</text></g><g class="node" transform="translate(367.08641234923925,-474.60253462088076)rotate(-52.279457092285156)"><circle r="5" style="fill: rgb(255, 255, 255);"></circle><text x="10" dy=".35em" text-anchor="start" transform="translate(0)">Documento</text></g><g class="node" transform="translate(594.8760903555134,-78.2460038809593)rotate(-7.493285655975343)skewX(-1.5902773407317588e-15)scale(0.9999999999999999,0.9999999999999999)"><circle r="5" style="fill: rgb(255, 255, 255);"></circle><text x="10" dy=".35em" text-anchor="start" transform="translate(0)">Persona</text></g><g class="node" transform="translate(509.8587600106331,316.29739935766094)rotate(31.81392478942871)"><circle r="5" style="fill: rgb(255, 255, 255);"></circle><text x="10" dy=".35em" text-anchor="start" transform="translate(0)">Acuerdo</text></g><g class="node" transform="translate(447.3374160625631,399.8615212676375)rotate(41.79257583618164)"><circle r="5" style="fill: rgb(255, 255, 255);"></circle><text x="10" dy=".35em" text-anchor="start" transform="translate(0)">AdquisicionSimple</text></g><g class="node" transform="translate(371.28176235016304,471.3277553318466)rotate(51.7712287902832)"><circle r="5" style="fill: rgb(255, 255, 255);"></circle><text x="10" dy=".35em" text-anchor="start" transform="translate(0)">DerechosReales</text></g><g class="node" transform="translate(283.992926368152,528.5338378693018)rotate(61.74987792968751)scale(0.9999999999999999,0.9999999999999999)"><circle r="5" style="fill: rgb(255, 255, 255);"></circle><text x="10" dy=".35em" text-anchor="start" transform="translate(0)">Propiedad</text></g><g class="node" transform="translate(-17.651494421443594,599.7402977495258)rotate(91.68583679199219)"><circle r="5" style="fill: rgb(255, 255, 255);"></circle><text x="10" dy=".35em" text-anchor="start" transform="translate(0)">Transaccion</text></g><g class="node" transform="translate(-65.22958539901452,596.4437116683122)rotate(96.24130249023438)"><circle r="5" style="fill: rgb(255, 255, 255);"></circle><text x="10" dy=".35em" text-anchor="start" transform="translate(0)">Renovacion</text></g><g class="node" transform="translate(-112.39562306255075,589.3786761636197)rotate(100.79677581787111)"><circle r="5" style="fill: rgb(255, 255, 255);"></circle><text x="10" dy=".35em" text-anchor="start" transform="translate(0)">Restitucion</text></g><g class="node" transform="translate(-158.8515233762129,578.5898318507304)rotate(105.35224914550783)skewX(3.1805546814635168e-15)scale(0.9999999999999999,1)"><circle r="5" style="fill: rgb(255, 255, 255);"></circle><text x="10" dy=".35em" text-anchor="start" transform="translate(0)">Recuperacion</text></g><g class="node" transform="translate(-204.30376894994745,564.1453447409156)rotate(109.90772247314455)"><circle r="5" style="fill: rgb(255, 255, 255);"></circle><text x="10" dy=".35em" text-anchor="start" transform="translate(0)">Notificacion</text></g><g class="node" transform="translate(-248.46511095657132,546.1365109909232)rotate(114.46318817138672)"><circle r="5" style="fill: rgb(255, 255, 255);"></circle><text x="10" dy=".35em" text-anchor="start" transform="translate(0)">Seguro</text></g><g class="node" transform="translate(-291.05667731350223,524.6770536160542)rotate(119.01866149902344)"><circle r="5" style="fill: rgb(255, 255, 255);"></circle><text x="10" dy=".35em" text-anchor="start" transform="translate(0)">ClausulaPenal</text></g><g class="node" transform="translate(-491.79092392951543,343.7174524817638)rotate(145.0499267578125)"><circle r="5" style="fill: rgb(255, 255, 255);"></circle><text x="10" dy=".35em" text-anchor="start" transform="translate(0)">Profesion</text></g><g class="node" transform="translate(-511.6976947196116,313.31369139990534)rotate(148.52076721191406)skewX(-3.1805546814635176e-15)scale(0.9999999999999999,0.9999999999999999)"><circle r="5" style="fill: rgb(255, 255, 255);"></circle><text x="10" dy=".35em" text-anchor="start" transform="translate(0)">PlanTrabajo</text></g><g class="node" transform="translate(-529.7272158079684,281.76067296969984)rotate(151.99159240722656)"><circle r="5" style="fill: rgb(255, 255, 255);"></circle><text x="10" dy=".35em" text-anchor="start" transform="translate(0)">Localization</text></g><g class="node" transform="translate(-545.8135039631278,249.1738728107196)rotate(155.46243286132812)"><circle r="5" style="fill: rgb(255, 255, 255);"></circle><text x="10" dy=".35em" text-anchor="start" transform="translate(0)">Procedure</text></g><g class="node" transform="translate(-559.8974628295806,215.67297261594567)rotate(158.9332733154297)"><circle r="5" style="fill: rgb(255, 255, 255);"></circle><text x="10" dy=".35em" text-anchor="start" transform="translate(0)">LocalizedProcedure</text></g><g class="node" transform="translate(-571.927376778317,181.38102351534187)rotate(162.4040985107422)"><circle r="5" style="fill: rgb(255, 255, 255);"></circle><text x="10" dy=".35em" text-anchor="start" transform="translate(0)">Factura</text></g><g class="node" transform="translate(430.0079501662651,-674.605931484305)rotate(-57.48571014404297)"><circle r="5" style="fill: rgb(255, 255, 255);"></circle><text x="10" dy=".35em" text-anchor="start" transform="translate(0)">Contrato</text></g><g class="node" transform="translate(460.20313685404426,-654.3799147511312)rotate(-54.88258361816406)"><circle r="5" style="fill: rgb(255, 255, 255);"></circle><text x="10" dy=".35em" text-anchor="start" transform="translate(0)">CartaDesalojo</text></g><g class="node" transform="translate(489.4485497989857,-632.8033794945077)rotate(-52.279457092285156)"><circle r="5" style="fill: rgb(255, 255, 255);"></circle><text x="10" dy=".35em" text-anchor="start" transform="translate(0)">PoderGeneral</text></g><g class="node" transform="translate(517.6838319042137,-609.9208556730699)rotate(-49.67633056640625)"><circle r="5" style="fill: rgb(255, 255, 255);"></circle><text x="10" dy=".35em" text-anchor="start" transform="translate(0)">CytologyReport</text></g><g class="node" transform="translate(544.8507107951666,-585.7795685631257)rotate(-47.073204040527344)"><circle r="5" style="fill: rgb(255, 255, 255);"></circle><text x="10" dy=".35em" text-anchor="start" transform="translate(0)">PrimerContacto</text></g><g class="node" transform="translate(281.7137057574848,-959.4985085910167)rotate(-73.63748931884766)"><circle r="5" style="fill: rgb(255, 255, 255);"></circle><text x="10" dy=".35em" text-anchor="start" transform="translate(0)">ContratoAlquiler</text></g><g class="node" transform="translate(434.31992088841065,-900.7586837324883)rotate(-64.25797271728516)"><circle r="5" style="fill: rgb(255, 255, 255);"></circle><text x="10" dy=".35em" text-anchor="start" transform="translate(0)">ContratoPromesaCompraventa</text></g><g class="node" transform="translate(575.3128997225481,-817.9334125788196)rotate(-54.87845230102539)"><circle r="5" style="fill: rgb(255, 255, 255);"></circle><text x="10" dy=".35em" text-anchor="start" transform="translate(0)">ContratoBeca</text></g><g class="node" transform="translate(700.9225606839627,-713.2373825902822)rotate(-45.498931884765625)"><circle r="5" style="fill: rgb(255, 255, 255);"></circle><text x="10" dy=".35em" text-anchor="start" transform="translate(0)">ContratoTrabajo</text></g><g class="node" transform="translate(726.3775964199683,-687.2958514491046)rotate(-43.416431427001946)"><circle r="5" style="fill: rgb(255, 255, 255);"></circle><text x="10" dy=".35em" text-anchor="start" transform="translate(0)">ContratoPrestacionServicios</text></g><g class="node" transform="translate(750.873144094072,-660.4464561781544)rotate(-41.33393096923828)"><circle r="5" style="fill: rgb(255, 255, 255);"></circle><text x="10" dy=".35em" text-anchor="start" transform="translate(0)">ContratoFactoring</text></g><g class="node" transform="translate(170.7660587046233,-1187.7874191935564)rotate(-81.8187484741211)"><circle r="5" style="fill: rgb(255, 255, 255);"></circle><text x="10" dy=".35em" text-anchor="start" transform="translate(0)">ContratoAlquilerInmueble</text></g><g class="node" transform="translate(498.465774158188,-1091.5731180241105)rotate(-65.45623779296875)"><circle r="5" style="fill: rgb(255, 255, 255);"></circle><text x="10" dy=".35em" text-anchor="start" transform="translate(0)">ContratoAlquilerVehiculo</text></g><g class="node" transform="translate(181.22264753743747,-1388.2212907240407)rotate(-82.56249237060547)"><circle r="5" style="fill: rgb(255, 255, 255);"></circle><text x="10" dy=".35em" text-anchor="start" transform="translate(0)">ContratoAlquilerInmuebleTerminoIndefinido</text></g><g class="node" transform="translate(217.19810418622154,-1383.0491616489674)rotate(-81.07499694824219)"><circle r="5" style="fill: rgb(255, 255, 255);"></circle><text x="10" dy=".35em" text-anchor="start" transform="translate(0)">ContratoAlquilerInmuebleTerminoDefinido</text></g><g class="node" transform="translate(564.963653688465,-1280.9434296685315)rotate(-66.19998931884766)"><circle r="5" style="fill: rgb(255, 255, 255);"></circle><text x="10" dy=".35em" text-anchor="start" transform="translate(0)">ContratoAlquilerVehiculoTerminoIndefinido</text></g><g class="node" transform="translate(598.0251616083892,-1265.845925096439)rotate(-64.71248626708984)scale(0.9999999999999999,0.9999999999999999)"><circle r="5" style="fill: rgb(255, 255, 255);"></circle><text x="10" dy=".35em" text-anchor="start" transform="translate(0)">ContratoAlquilerVehiculoTerminoDefinido</text></g><g class="node" transform="translate(801.3669778456555,-893.2026459983875)rotate(-48.10205841064453)"><circle r="5" style="fill: rgb(255, 255, 255);"></circle><text x="10" dy=".35em" text-anchor="start" transform="translate(0)">ContratoTrabajoTerminoIndefinido</text></g><g class="node" transform="translate(828.0492536791561,-868.5242849117074)rotate(-46.366641998291016)"><circle r="5" style="fill: rgb(255, 255, 255);"></circle><text x="10" dy=".35em" text-anchor="start" transform="translate(0)">ContratoTrabajoTerminoDefinido</text></g><g class="node" transform="translate(853.9719292544238,-843.0491943211129)rotate(-44.6312255859375)"><circle r="5" style="fill: rgb(255, 255, 255);"></circle><text x="10" dy=".35em" text-anchor="start" transform="translate(0)">ContratoTrabajoObraTerminada</text></g><g class="node" transform="translate(879.1112791225587,-816.80068494064)rotate(-42.895805358886726)"><circle r="5" style="fill: rgb(255, 255, 255);"></circle><text x="10" dy=".35em" text-anchor="start" transform="translate(0)">SuspensionContratoTrabajo</text></g><g class="node" transform="translate(966.0574626256821,-1013.2783323969919)rotate(-46.366641998291016)"><circle r="5" style="fill: rgb(255, 255, 255);"></circle><text x="10" dy=".35em" text-anchor="start" transform="translate(0)">ContratoTrabajoAprendiz</text></g><g class="node" transform="translate(754.2637729213376,-266.61988083874945)rotate(-19.467666625976562)"><circle r="5" style="fill: rgb(255, 255, 255);"></circle><text x="10" dy=".35em" text-anchor="start" transform="translate(0)">PersonaNatural</text></g><g class="node" transform="translate(797.5545325344984,62.50414093224338)rotate(4.481096267700195)"><circle r="5" style="fill: rgb(255, 255, 255);"></circle><text x="10" dy=".35em" text-anchor="start" transform="translate(0)">PersonaJuridicaBase</text></g><g class="node" transform="translate(936.6176640012268,-350.3531810628884)rotate(-20.508918762207028)"><circle r="5" style="fill: rgb(255, 255, 255);"></circle><text x="10" dy=".35em" text-anchor="start" transform="translate(0)">Representante</text></g><g class="node" transform="translate(948.7303798295507,-316.0864856150554)rotate(-18.426416397094727)"><circle r="5" style="fill: rgb(255, 255, 255);"></circle><text x="10" dy=".35em" text-anchor="start" transform="translate(0)">PersonaTrabajadora</text></g><g class="node" transform="translate(1138.4764557954609,-379.30378273806645)rotate(-18.426416397094727)"><circle r="5" style="fill: rgb(255, 255, 255);"></circle><text x="10" dy=".35em" text-anchor="start" transform="translate(0)">Desarrollador</text></g><g class="node" transform="translate(999.1238565988899,41.85115500151636)rotate(2.398595094680786)"><circle r="5" style="fill: rgb(255, 255, 255);"></circle><text x="10" dy=".35em" text-anchor="start" transform="translate(0)">Notaria</text></g><g class="node" transform="translate(996.943165668123,78.13017616530422)rotate(4.481096267700195)"><circle r="5" style="fill: rgb(255, 255, 255);"></circle><text x="10" dy=".35em" text-anchor="start" transform="translate(0)">CamaraComercio</text></g><g class="node" transform="translate(993.445589314302,114.30599753275978)rotate(6.5635976791381845)"><circle r="5" style="fill: rgb(255, 255, 255);"></circle><text x="10" dy=".35em" text-anchor="start" transform="translate(0)">PersonaJuridica</text></g><g class="node" transform="translate(1192.1347071771622,137.16719703931173)rotate(6.5635976791381845)"><circle r="5" style="fill: rgb(255, 255, 255);"></circle><text x="10" dy=".35em" text-anchor="start" transform="translate(0)">CentroComercial</text></g><g class="node" transform="translate(689.215711458554,406.17939765413917)rotate(30.512361526489258)"><circle r="5" style="fill: rgb(255, 255, 255);"></circle><text x="10" dy=".35em" text-anchor="start" transform="translate(0)">EscrituraPublica</text></g><g class="node" transform="translate(670.0568666248197,437.06269057073337)rotate(33.11548614501953)"><circle r="5" style="fill: rgb(255, 255, 255);"></circle><text x="10" dy=".35em" text-anchor="start" transform="translate(0)">Constitucion</text></g><g class="node" transform="translate(410.2727435617508,686.7869217525287)rotate(59.146751403808594)"><circle r="5" style="fill: rgb(255, 255, 255);"></circle><text x="10" dy=".35em" text-anchor="start" transform="translate(0)">Hotel</text></g><g class="node" transform="translate(378.657235157536,704.7117838257357)rotate(61.74987792968751)scale(0.9999999999999999,0.9999999999999999)"><circle r="5" style="fill: rgb(255, 255, 255);"></circle><text x="10" dy=".35em" text-anchor="start" transform="translate(0)">Inmueble</text></g><g class="node" transform="translate(346.26024859576967,721.1822517522154)rotate(64.3530044555664)"><circle r="5" style="fill: rgb(255, 255, 255);"></circle><text x="10" dy=".35em" text-anchor="end" transform="rotate(180)translate(-20)">Vehiculo</text></g><g class="node" transform="translate(473.32154394692,880.8897297821696)rotate(61.74987792968751)scale(0.9999999999999999,0.9999999999999999)"><circle r="5" style="fill: rgb(255, 255, 255);"></circle><text x="10" dy=".35em" text-anchor="start" transform="translate(0)">LocalComercial</text></g><g class="node" transform="translate(567.985852736304,1057.0676757386036)rotate(61.74987792968751)scale(0.9999999999999999,0.9999999999999999)"><circle r="5" style="fill: rgb(255, 255, 255);"></circle><text x="10" dy=".35em" text-anchor="start" transform="translate(0)">LocalCentroComercial</text></g><g class="node" transform="translate(-5.365377161601775,799.9820077526205)rotate(90.38426971435547)"><circle r="5" style="fill: rgb(255, 255, 255);"></circle><text x="10" dy=".35em" text-anchor="end" transform="rotate(180)translate(-20)">TransaccionMensual</text></g><g class="node" transform="translate(-41.693023474709676,798.9128186438976)rotate(92.98739624023438)scale(0.9999999999999999,0.9999999999999999)"><circle r="5" style="fill: rgb(255, 255, 255);"></circle><text x="10" dy=".35em" text-anchor="end" transform="rotate(180)translate(-20)">Honorarios</text></g><g class="node" transform="translate(11.46625512025128,999.934260335907)rotate(89.343017578125)"><circle r="5" style="fill: rgb(255, 255, 255);"></circle><text x="10" dy=".35em" text-anchor="end" transform="rotate(180)translate(-20)">Canon</text></g><g class="node" transform="translate(-24.877483069484434,999.6905075252678)rotate(91.42552185058594)"><circle r="5" style="fill: rgb(255, 255, 255);"></circle><text x="10" dy=".35em" text-anchor="end" transform="rotate(180)translate(-20)">Salario</text></g><g class="node" transform="translate(-11.682677038820007,1199.9431299262505)rotate(90.55781555175781)"><circle r="5" style="fill: rgb(255, 255, 255);"></circle><text x="10" dy=".35em" text-anchor="end" transform="rotate(180)translate(-20)">SalarioIntegral</text></g><g class="node" transform="translate(-48.01643565440711,1199.038957626918)rotate(92.29322814941406)scale(0.9999999999999999,0.9999999999999999)"><circle r="5" style="fill: rgb(255, 255, 255);"></circle><text x="10" dy=".35em" text-anchor="end" transform="rotate(180)translate(-20)">SalarioVariable</text></g><g class="node" transform="translate(-388.07556975133633,699.5694048214057)rotate(119.01866149902344)"><circle r="5" style="fill: rgb(255, 255, 255);"></circle><text x="10" dy=".35em" text-anchor="end" transform="rotate(180)translate(-20)">PenalAlquiler</text></g><g class="node" transform="translate(-655.7212319060205,458.28993664235173)rotate(145.0499267578125)"><circle r="5" style="fill: rgb(255, 255, 255);"></circle><text x="10" dy=".35em" text-anchor="end" transform="rotate(180)translate(-20)">PlanEstudios</text></g></g></svg>